<svg width="154" height="154" viewBox="0 0 154 154" fill="none" xmlns="http://www.w3.org/2000/svg">
<circle cx="77" cy="77" r="77" fill="#38A3A5"/>
<path d="M39.92 95.56C39.76 95.6667 39.7067 95.8 39.76 95.96C39.8133 96.0667 39.9467 96.12 40.16 96.12H55.04C55.4133 96.12 55.7067 96.2267 55.92 96.44C56.1333 96.6533 56.24 96.9467 56.24 97.32V107.8C56.24 108.173 56.1333 108.467 55.92 108.68C55.7067 108.893 55.4133 109 55.04 109H22.64C22.2667 109 21.9733 108.893 21.76 108.68C21.5467 108.467 21.44 108.173 21.44 107.8V97C21.44 96.4133 21.6267 95.9067 22 95.48L26.88 90.04C29.5467 87.1067 31.5733 84.8133 32.96 83.16C34.4 81.5067 35.68 79.8533 36.8 78.2C39.3067 74.5733 40.56 71.3733 40.56 68.6C40.56 66.36 39.8667 65.24 38.48 65.24C37.84 65.24 37.3067 65.5067 36.88 66.04C36.5067 66.52 36.32 67.1867 36.32 68.04V71.4C36.32 71.7733 36.2133 72.0667 36 72.28C35.7867 72.4933 35.4933 72.6 35.12 72.6H22.32C21.9467 72.6 21.6533 72.4933 21.44 72.28C21.2267 72.0667 21.12 71.7733 21.12 71.4V67.4C21.3333 64.4133 22.2133 61.8 23.76 59.56C25.36 57.2667 27.4933 55.5067 30.16 54.28C32.8267 53 35.84 52.36 39.2 52.36C42.4533 52.36 45.3333 53.0533 47.84 54.44C50.3467 55.7733 52.2933 57.6933 53.68 60.2C55.0667 62.6533 55.76 65.48 55.76 68.68C55.76 71.6667 55.3333 74.3333 54.48 76.68C53.6267 78.9733 52.2133 81.4267 50.24 84.04C48.48 86.3867 46.4 88.8133 44 91.32C41.6533 93.7733 40.2933 95.1867 39.92 95.56ZM59.0313 109C58.3379 109 57.9913 108.733 57.9913 108.2L58.1513 107.56L66.8713 88.52C66.9779 88.3067 66.9779 88.0933 66.8713 87.88L58.1513 68.84L57.9913 68.2C57.9913 67.6667 58.3379 67.4 59.0313 67.4H72.7913C73.4846 67.4 73.9379 67.72 74.1513 68.36L75.9913 73.72C76.0979 73.9333 76.2046 74.04 76.3113 74.04C76.4713 74.04 76.5779 73.9333 76.6313 73.72L78.4713 68.36C78.6846 67.72 79.1379 67.4 79.8313 67.4H93.5913C94.2846 67.4 94.6313 67.6667 94.6313 68.2L94.4713 68.84L85.7513 87.88C85.6446 88.0933 85.6446 88.3067 85.7513 88.52L94.4713 107.56L94.6313 108.2C94.6313 108.733 94.2846 109 93.5913 109H79.8313C79.1379 109 78.6846 108.68 78.4713 108.04L76.6313 102.36C76.5779 102.093 76.4713 101.96 76.3113 101.96C76.2046 101.96 76.0979 102.093 75.9913 102.36L74.1513 108.04C73.9379 108.68 73.4846 109 72.7913 109H59.0313ZM115.545 95.56C115.385 95.6667 115.332 95.8 115.385 95.96C115.438 96.0667 115.572 96.12 115.785 96.12H130.665C131.038 96.12 131.332 96.2267 131.545 96.44C131.758 96.6533 131.865 96.9467 131.865 97.32V107.8C131.865 108.173 131.758 108.467 131.545 108.68C131.332 108.893 131.038 109 130.665 109H98.265C97.8917 109 97.5983 108.893 97.385 108.68C97.1717 108.467 97.065 108.173 97.065 107.8V97C97.065 96.4133 97.2517 95.9067 97.625 95.48L102.505 90.04C105.172 87.1067 107.198 84.8133 108.585 83.16C110.025 81.5067 111.305 79.8533 112.425 78.2C114.932 74.5733 116.185 71.3733 116.185 68.6C116.185 66.36 115.492 65.24 114.105 65.24C113.465 65.24 112.932 65.5067 112.505 66.04C112.132 66.52 111.945 67.1867 111.945 68.04V71.4C111.945 71.7733 111.838 72.0667 111.625 72.28C111.412 72.4933 111.118 72.6 110.745 72.6H97.945C97.5717 72.6 97.2783 72.4933 97.065 72.28C96.8517 72.0667 96.745 71.7733 96.745 71.4V67.4C96.9583 64.4133 97.8383 61.8 99.385 59.56C100.985 57.2667 103.118 55.5067 105.785 54.28C108.452 53 111.465 52.36 114.825 52.36C118.078 52.36 120.958 53.0533 123.465 54.44C125.972 55.7733 127.918 57.6933 129.305 60.2C130.692 62.6533 131.385 65.48 131.385 68.68C131.385 71.6667 130.958 74.3333 130.105 76.68C129.252 78.9733 127.838 81.4267 125.865 84.04C124.105 86.3867 122.025 88.8133 119.625 91.32C117.278 93.7733 115.918 95.1867 115.545 95.56Z" fill="white"/>
</svg>
