<svg width="154" height="154" viewBox="0 0 154 154" fill="none" xmlns="http://www.w3.org/2000/svg">
<circle cx="77" cy="77" r="77" fill="#38A3A5"/>
<path d="M55.56 82.04C55.9333 82.04 56.2267 82.1467 56.44 82.36C56.6533 82.5733 56.76 82.8667 56.76 83.24V94.44C56.76 94.8133 56.6533 95.1067 56.44 95.32C56.2267 95.5333 55.9333 95.64 55.56 95.64H53.16C52.84 95.64 52.68 95.8 52.68 96.12V107.8C52.68 108.173 52.5733 108.467 52.36 108.68C52.1467 108.893 51.8533 109 51.48 109H38.84C38.4667 109 38.1733 108.893 37.96 108.68C37.7467 108.467 37.64 108.173 37.64 107.8V96.12C37.64 95.8 37.48 95.64 37.16 95.64H16.84C16.4667 95.64 16.1733 95.5333 15.96 95.32C15.7467 95.1067 15.64 94.8133 15.64 94.44V85.56C15.64 85.08 15.72 84.6 15.88 84.12L25.56 53.96C25.7733 53.32 26.2267 53 26.92 53H40.44C40.8667 53 41.16 53.1333 41.32 53.4C41.5333 53.6133 41.5867 53.9333 41.48 54.36L33.24 81.48C33.1867 81.8533 33.32 82.04 33.64 82.04H37.16C37.48 82.04 37.64 81.88 37.64 81.56V76.12C37.64 75.7467 37.7467 75.4533 37.96 75.24C38.1733 75.0267 38.4667 74.92 38.84 74.92H51.48C51.8533 74.92 52.1467 75.0267 52.36 75.24C52.5733 75.4533 52.68 75.7467 52.68 76.12V81.56C52.68 81.88 52.84 82.04 53.16 82.04H55.56ZM59.4219 109C58.7285 109 58.3819 108.733 58.3819 108.2L58.5419 107.56L67.2619 88.52C67.3685 88.3067 67.3685 88.0933 67.2619 87.88L58.5419 68.84L58.3819 68.2C58.3819 67.6667 58.7285 67.4 59.4219 67.4H73.1819C73.8752 67.4 74.3285 67.72 74.5419 68.36L76.3819 73.72C76.4885 73.9333 76.5952 74.04 76.7019 74.04C76.8619 74.04 76.9685 73.9333 77.0219 73.72L78.8619 68.36C79.0752 67.72 79.5285 67.4 80.2219 67.4H93.9819C94.6752 67.4 95.0219 67.6667 95.0219 68.2L94.8619 68.84L86.1419 87.88C86.0352 88.0933 86.0352 88.3067 86.1419 88.52L94.8619 107.56L95.0219 108.2C95.0219 108.733 94.6752 109 93.9819 109H80.2219C79.5285 109 79.0752 108.68 78.8619 108.04L77.0219 102.36C76.9685 102.093 76.8619 101.96 76.7019 101.96C76.5952 101.96 76.4885 102.093 76.3819 102.36L74.5419 108.04C74.3285 108.68 73.8752 109 73.1819 109H59.4219ZM136.576 82.04C136.949 82.04 137.242 82.1467 137.456 82.36C137.669 82.5733 137.776 82.8667 137.776 83.24V94.44C137.776 94.8133 137.669 95.1067 137.456 95.32C137.242 95.5333 136.949 95.64 136.576 95.64H134.176C133.856 95.64 133.696 95.8 133.696 96.12V107.8C133.696 108.173 133.589 108.467 133.376 108.68C133.162 108.893 132.869 109 132.496 109H119.856C119.482 109 119.189 108.893 118.976 108.68C118.762 108.467 118.656 108.173 118.656 107.8V96.12C118.656 95.8 118.496 95.64 118.176 95.64H97.8556C97.4823 95.64 97.189 95.5333 96.9756 95.32C96.7623 95.1067 96.6556 94.8133 96.6556 94.44V85.56C96.6556 85.08 96.7356 84.6 96.8956 84.12L106.576 53.96C106.789 53.32 107.242 53 107.936 53H121.456C121.882 53 122.176 53.1333 122.336 53.4C122.549 53.6133 122.602 53.9333 122.496 54.36L114.256 81.48C114.202 81.8533 114.336 82.04 114.656 82.04H118.176C118.496 82.04 118.656 81.88 118.656 81.56V76.12C118.656 75.7467 118.762 75.4533 118.976 75.24C119.189 75.0267 119.482 74.92 119.856 74.92H132.496C132.869 74.92 133.162 75.0267 133.376 75.24C133.589 75.4533 133.696 75.7467 133.696 76.12V81.56C133.696 81.88 133.856 82.04 134.176 82.04H136.576Z" fill="white"/>
</svg>
