<svg width="154" height="154" viewBox="0 0 154 154" fill="none" xmlns="http://www.w3.org/2000/svg">
<circle cx="77" cy="77" r="77" fill="#38A3A5"/>
<path d="M43.36 73.48C47.1467 73.48 50.1333 74.8133 52.32 77.48C54.56 80.0933 55.68 83.6667 55.68 88.2V95.32C55.68 99.8 54.1333 103.32 51.04 105.88C47.9467 108.387 43.7867 109.64 38.56 109.64C33.7067 109.64 29.76 108.493 26.72 106.2C23.7333 103.907 22.0533 100.467 21.68 95.88C21.5733 94.6 21.52 93.5333 21.52 92.68L21.36 67.08C21.3067 62.5467 22.8267 58.9733 25.92 56.36C29.0667 53.6933 33.2 52.36 38.32 52.36C43.28 52.36 47.28 53.6933 50.32 56.36C53.4133 59.0267 54.96 62.6 54.96 67.08V70.2C54.96 70.5733 54.8533 70.8667 54.64 71.08C54.4267 71.2933 54.1333 71.4 53.76 71.4H41.12C40.7467 71.4 40.4533 71.2933 40.24 71.08C40.0267 70.8667 39.92 70.5733 39.92 70.2V68.12C39.92 67.3733 39.7333 66.76 39.36 66.28C39.04 65.8 38.6933 65.56 38.32 65.56C37.7867 65.56 37.3333 65.8 36.96 66.28C36.64 66.76 36.48 67.3733 36.48 68.12V75.48C36.48 75.6933 36.5333 75.8267 36.64 75.88C36.7467 75.9333 36.88 75.9067 37.04 75.8C37.8933 75.0533 38.8533 74.4933 39.92 74.12C41.04 73.6933 42.1867 73.48 43.36 73.48ZM40.4 86.6C40.4 85.8533 40.2133 85.24 39.84 84.76C39.52 84.28 39.0667 84.04 38.48 84.04C37.8933 84.04 37.4133 84.28 37.04 84.76C36.6667 85.24 36.48 85.8533 36.48 86.6V94.28C36.48 95.0267 36.6667 95.64 37.04 96.12C37.4133 96.6 37.8933 96.84 38.48 96.84C39.0667 96.84 39.52 96.6 39.84 96.12C40.2133 95.64 40.4 95.0267 40.4 94.28V86.6ZM58.7969 109C58.1035 109 57.7569 108.733 57.7569 108.2L57.9169 107.56L66.6369 88.52C66.7435 88.3067 66.7435 88.0933 66.6369 87.88L57.9169 68.84L57.7569 68.2C57.7569 67.6667 58.1035 67.4 58.7969 67.4H72.5569C73.2502 67.4 73.7035 67.72 73.9169 68.36L75.7569 73.72C75.8635 73.9333 75.9702 74.04 76.0769 74.04C76.2369 74.04 76.3435 73.9333 76.3969 73.72L78.2369 68.36C78.4502 67.72 78.9035 67.4 79.5969 67.4H93.3569C94.0502 67.4 94.3969 67.6667 94.3969 68.2L94.2369 68.84L85.5169 87.88C85.4102 88.0933 85.4102 88.3067 85.5169 88.52L94.2369 107.56L94.3969 108.2C94.3969 108.733 94.0502 109 93.3569 109H79.5969C78.9035 109 78.4502 108.68 78.2369 108.04L76.3969 102.36C76.3435 102.093 76.2369 101.96 76.0769 101.96C75.9702 101.96 75.8635 102.093 75.7569 102.36L73.9169 108.04C73.7035 108.68 73.2502 109 72.5569 109H58.7969ZM118.751 73.48C122.537 73.48 125.524 74.8133 127.711 77.48C129.951 80.0933 131.071 83.6667 131.071 88.2V95.32C131.071 99.8 129.524 103.32 126.431 105.88C123.337 108.387 119.177 109.64 113.951 109.64C109.097 109.64 105.151 108.493 102.111 106.2C99.124 103.907 97.444 100.467 97.0706 95.88C96.964 94.6 96.9106 93.5333 96.9106 92.68L96.7506 67.08C96.6973 62.5467 98.2173 58.9733 101.311 56.36C104.457 53.6933 108.591 52.36 113.711 52.36C118.671 52.36 122.671 53.6933 125.711 56.36C128.804 59.0267 130.351 62.6 130.351 67.08V70.2C130.351 70.5733 130.244 70.8667 130.031 71.08C129.817 71.2933 129.524 71.4 129.151 71.4H116.511C116.137 71.4 115.844 71.2933 115.631 71.08C115.417 70.8667 115.311 70.5733 115.311 70.2V68.12C115.311 67.3733 115.124 66.76 114.751 66.28C114.431 65.8 114.084 65.56 113.711 65.56C113.177 65.56 112.724 65.8 112.351 66.28C112.031 66.76 111.871 67.3733 111.871 68.12V75.48C111.871 75.6933 111.924 75.8267 112.031 75.88C112.137 75.9333 112.271 75.9067 112.431 75.8C113.284 75.0533 114.244 74.4933 115.311 74.12C116.431 73.6933 117.577 73.48 118.751 73.48ZM115.791 86.6C115.791 85.8533 115.604 85.24 115.231 84.76C114.911 84.28 114.457 84.04 113.871 84.04C113.284 84.04 112.804 84.28 112.431 84.76C112.057 85.24 111.871 85.8533 111.871 86.6V94.28C111.871 95.0267 112.057 95.64 112.431 96.12C112.804 96.6 113.284 96.84 113.871 96.84C114.457 96.84 114.911 96.6 115.231 96.12C115.604 95.64 115.791 95.0267 115.791 94.28V86.6Z" fill="white"/>
</svg>
