<svg width="154" height="154" viewBox="0 0 154 154" fill="none" xmlns="http://www.w3.org/2000/svg">
<circle cx="77" cy="77" r="77" fill="#38A3A5"/>
<path d="M49.6 79.8C49.3333 79.96 49.3333 80.1733 49.6 80.44C51.3067 81.5067 52.6133 83.08 53.52 85.16C54.4267 87.4 54.88 89.8267 54.88 92.44C54.88 94.9467 54.4267 97.3467 53.52 99.64C52.2933 102.68 50.2933 105.107 47.52 106.92C44.8 108.733 41.6533 109.64 38.08 109.64C34.4533 109.64 31.2533 108.76 28.48 107C25.76 105.187 23.7867 102.733 22.56 99.64C21.7067 97.4533 21.28 95.0533 21.28 92.44C21.28 89.6667 21.7067 87.24 22.56 85.16C23.36 83.24 24.64 81.6933 26.4 80.52C26.72 80.2533 26.7467 80.04 26.48 79.88C24.72 78.5467 23.4133 76.8667 22.56 74.84C21.7067 72.76 21.28 70.4667 21.28 67.96C21.28 65.3467 21.7067 63.0267 22.56 61C23.7867 58.1733 25.7867 55.9333 28.56 54.28C31.3333 52.6267 34.5067 51.8 38.08 51.8C41.6 51.8 44.7467 52.6 47.52 54.2C50.2933 55.7467 52.2933 58.0133 53.52 61C54.4267 63.1333 54.88 65.4533 54.88 67.96C54.88 70.36 54.4267 72.6533 53.52 74.84C52.72 76.76 51.4133 78.4133 49.6 79.8ZM36.08 71.48C36.08 72.44 36.2667 73.2133 36.64 73.8C37.0133 74.3867 37.4933 74.68 38.08 74.68C38.6667 74.68 39.1467 74.3867 39.52 73.8C39.8933 73.2133 40.08 72.44 40.08 71.48V67.8C40.08 66.8933 39.8933 66.1467 39.52 65.56C39.1467 64.9733 38.6667 64.68 38.08 64.68C37.4933 64.68 37.0133 64.9733 36.64 65.56C36.2667 66.1467 36.08 66.8933 36.08 67.8V71.48ZM40.08 89.16C40.08 88.2 39.8933 87.4267 39.52 86.84C39.1467 86.2533 38.6667 85.96 38.08 85.96C37.4933 85.96 37.0133 86.2533 36.64 86.84C36.2667 87.4267 36.08 88.2 36.08 89.16V93.64C36.08 94.5467 36.2667 95.2933 36.64 95.88C37.0133 96.4667 37.4933 96.76 38.08 96.76C38.6667 96.76 39.1467 96.4667 39.52 95.88C39.8933 95.2933 40.08 94.5467 40.08 93.64V89.16ZM58.1719 109C57.4785 109 57.1319 108.733 57.1319 108.2L57.2919 107.56L66.0119 88.52C66.1185 88.3067 66.1185 88.0933 66.0119 87.88L57.2919 68.84L57.1319 68.2C57.1319 67.6667 57.4785 67.4 58.1719 67.4H71.9319C72.6252 67.4 73.0785 67.72 73.2919 68.36L75.1319 73.72C75.2385 73.9333 75.3452 74.04 75.4519 74.04C75.6119 74.04 75.7185 73.9333 75.7719 73.72L77.6119 68.36C77.8252 67.72 78.2785 67.4 78.9719 67.4H92.7319C93.4252 67.4 93.7719 67.6667 93.7719 68.2L93.6119 68.84L84.8919 87.88C84.7852 88.0933 84.7852 88.3067 84.8919 88.52L93.6119 107.56L93.7719 108.2C93.7719 108.733 93.4252 109 92.7319 109H78.9719C78.2785 109 77.8252 108.68 77.6119 108.04L75.7719 102.36C75.7185 102.093 75.6119 101.96 75.4519 101.96C75.3452 101.96 75.2385 102.093 75.1319 102.36L73.2919 108.04C73.0785 108.68 72.6252 109 71.9319 109H58.1719ZM124.366 79.8C124.099 79.96 124.099 80.1733 124.366 80.44C126.072 81.5067 127.379 83.08 128.286 85.16C129.192 87.4 129.646 89.8267 129.646 92.44C129.646 94.9467 129.192 97.3467 128.286 99.64C127.059 102.68 125.059 105.107 122.286 106.92C119.566 108.733 116.419 109.64 112.846 109.64C109.219 109.64 106.019 108.76 103.246 107C100.526 105.187 98.5523 102.733 97.3256 99.64C96.4723 97.4533 96.0456 95.0533 96.0456 92.44C96.0456 89.6667 96.4723 87.24 97.3256 85.16C98.1256 83.24 99.4056 81.6933 101.166 80.52C101.486 80.2533 101.512 80.04 101.246 79.88C99.4856 78.5467 98.179 76.8667 97.3256 74.84C96.4723 72.76 96.0456 70.4667 96.0456 67.96C96.0456 65.3467 96.4723 63.0267 97.3256 61C98.5523 58.1733 100.552 55.9333 103.326 54.28C106.099 52.6267 109.272 51.8 112.846 51.8C116.366 51.8 119.512 52.6 122.286 54.2C125.059 55.7467 127.059 58.0133 128.286 61C129.192 63.1333 129.646 65.4533 129.646 67.96C129.646 70.36 129.192 72.6533 128.286 74.84C127.486 76.76 126.179 78.4133 124.366 79.8ZM110.846 71.48C110.846 72.44 111.032 73.2133 111.406 73.8C111.779 74.3867 112.259 74.68 112.846 74.68C113.432 74.68 113.912 74.3867 114.286 73.8C114.659 73.2133 114.846 72.44 114.846 71.48V67.8C114.846 66.8933 114.659 66.1467 114.286 65.56C113.912 64.9733 113.432 64.68 112.846 64.68C112.259 64.68 111.779 64.9733 111.406 65.56C111.032 66.1467 110.846 66.8933 110.846 67.8V71.48ZM114.846 89.16C114.846 88.2 114.659 87.4267 114.286 86.84C113.912 86.2533 113.432 85.96 112.846 85.96C112.259 85.96 111.779 86.2533 111.406 86.84C111.032 87.4267 110.846 88.2 110.846 89.16V93.64C110.846 94.5467 111.032 95.2933 111.406 95.88C111.779 96.4667 112.259 96.76 112.846 96.76C113.432 96.76 113.912 96.4667 114.286 95.88C114.659 95.2933 114.846 94.5467 114.846 93.64V89.16Z" fill="white"/>
</svg>
